<svg width="70" height="78" viewBox="0 0 70 78" fill="none" xmlns="http://www.w3.org/2000/svg">
<g clip-path="url(#clip0_180_3564)">
<path d="M70 35.6753C70 16.3461 54.3307 0.676758 34.9986 0.676758C15.6665 0.676758 0 16.3461 0 35.6753C0 52.4393 11.7859 66.4483 27.5231 69.8735L34.9731 77.3235L42.409 69.8876C58.1801 66.4879 70 52.4647 70 35.6753Z" fill="#00BBFD"/>
<path d="M24.5137 35.1829H21.6061L19.3519 26.1235H19.3151L17.0977 35.1829H14.1335L10.6093 21.8752H13.5367L15.6439 30.9346H15.6806L17.9914 21.8752H20.7321L23.0062 31.0449H23.0429L25.2236 21.8752H28.0945L24.5165 35.1829H24.5137Z" fill="white"/>
<path d="M28.6884 21.875H31.6158V26.9831H37.0039V21.875H39.9313V35.1826H37.0039V29.441H31.6158V35.1826H28.6884V21.875Z" fill="white"/>
<path d="M45.3901 21.875H48.391L53.369 35.1826H50.3313L49.3244 32.2184H44.3464L43.3028 35.1826H40.3386L45.3901 21.875ZM45.1101 30.0406H48.5579L46.8807 25.1559H46.8439L45.1101 30.0406Z" fill="white"/>
<path d="M53.8527 24.3357H49.8646V21.875H60.7681V24.3357H56.7801V35.1854H53.8527V24.3357Z" fill="white"/>
<path d="M23.1334 44.5757C23.1334 48.1734 21.0093 49.9242 17.4484 49.9242C13.8874 49.9242 11.7831 48.1904 11.7831 44.5757V36.2998H14.7105V44.5757C14.7105 46.0295 15.0838 47.4635 17.4512 47.4635C19.5385 47.4635 20.2089 46.5499 20.2089 44.5757V36.2998H23.1363V44.5757H23.1334Z" fill="white"/>
<path d="M24.1602 36.2998H27.0677L32.6227 45.2291H32.6595V36.2998H35.4002V49.6074H32.4728L26.9376 40.698H26.9009V49.6074H24.1602V36.2998Z" fill="white"/>
<path d="M36.4807 36.2998H39.408V49.6074H36.4807V36.2998Z" fill="white"/>
<path d="M40.5451 40.588C40.6016 37.9237 42.3524 35.9834 45.0733 35.9834C48.5975 35.9834 49.7147 38.1443 49.7147 39.5811C49.7147 41.3885 48.9511 42.1154 48.1478 42.732C47.3473 43.3287 46.4875 43.8124 46.3206 44.9126V45.6197H43.8034V44.7825C43.9165 43.1619 44.6802 42.435 45.424 41.8551C46.1509 41.2782 46.7845 40.8482 46.7845 39.8413C46.7845 38.7043 46.1877 38.1641 45.2006 38.1641C43.8571 38.1641 43.2999 39.2643 43.2801 40.588H40.5394H40.5451ZM43.546 46.7398H46.4734V49.6106H43.546V46.7398Z" fill="#95D8F0"/>
</g>
<defs>
<clipPath id="clip0_180_3564">
<rect width="70" height="76.6467" fill="white" transform="translate(0 0.676758)"/>
</clipPath>
</defs>
</svg>
