<svg width="17" height="18" viewBox="0 0 17 18" fill="none" xmlns="http://www.w3.org/2000/svg">
<g clip-path="url(#clip0_1116_4688)">
<path d="M13.7799 9.77321V14.5023C13.7799 14.673 13.7175 14.8208 13.5928 14.9456C13.468 15.0704 13.3202 15.1328 13.1494 15.1328H9.36615V11.3496H6.84398V15.1328H3.06073C2.88996 15.1328 2.74218 15.0704 2.61738 14.9456C2.49259 14.8208 2.43019 14.673 2.43019 14.5023V9.77321C2.43019 9.76664 2.43183 9.75679 2.43512 9.74365C2.4384 9.73051 2.44004 9.72066 2.44004 9.71409L8.10507 5.04414L13.7701 9.71409C13.7767 9.72723 13.7799 9.74693 13.7799 9.77321ZM15.977 9.0934L15.3662 9.82247C15.3136 9.88158 15.2446 9.91771 15.1593 9.93084H15.1297C15.0443 9.93084 14.9753 9.90785 14.9228 9.86188L8.10507 4.17715L1.28733 9.86188C1.20852 9.91442 1.1297 9.93741 1.05088 9.93084C0.965494 9.91771 0.896529 9.88158 0.843984 9.82247L0.233146 9.0934C0.180601 9.02772 0.157612 8.95055 0.164181 8.86188C0.170749 8.77321 0.206874 8.7026 0.272555 8.65005L7.3563 2.74858C7.56648 2.5778 7.81607 2.49242 8.10507 2.49242C8.39406 2.49242 8.64365 2.5778 8.85384 2.74858L11.2578 4.75843V2.83725C11.2578 2.74529 11.2873 2.66976 11.3464 2.61065C11.4056 2.55153 11.4811 2.52198 11.573 2.52198H13.4647C13.5566 2.52198 13.6322 2.55153 13.6913 2.61065C13.7504 2.66976 13.7799 2.74529 13.7799 2.83725V6.85695L15.9376 8.65005C16.0033 8.7026 16.0394 8.77321 16.046 8.86188C16.0525 8.95055 16.0295 9.02772 15.977 9.0934Z" fill="#3460DC"/>
</g>
<defs>
<clipPath id="clip0_1116_4688">
<rect width="16.72" height="18" fill="white" transform="matrix(1 0 0 -1 0 18)"/>
</clipPath>
</defs>
</svg>
