<svg width="20" height="20" viewBox="0 0 20 20" fill="none" xmlns="http://www.w3.org/2000/svg">
<path d="M13.5 15.6H17V14.2C17 13.0402 16.0598 12.1 14.9 12.1C14.2311 12.1 13.6352 12.4128 13.2506 12.9M13.5 15.6H6.5M13.5 15.6V14.2C13.5 13.7407 13.4115 13.302 13.2506 12.9M6.5 15.6H3V14.2C3 13.0402 3.9402 12.1 5.1 12.1C5.76892 12.1 6.3648 12.4128 6.74937 12.9M6.5 15.6V14.2C6.5 13.7407 6.5885 13.302 6.74937 12.9M6.74937 12.9C7.26545 11.6107 8.52637 10.7 10 10.7C11.4736 10.7 12.7345 11.6107 13.2506 12.9M12.1 6.50002C12.1 7.65982 11.1598 8.60002 10 8.60002C8.8402 8.60002 7.9 7.65982 7.9 6.50002C7.9 5.34023 8.8402 4.40002 10 4.40002C11.1598 4.40002 12.1 5.34023 12.1 6.50002ZM16.3 8.60002C16.3 9.37322 15.6732 10 14.9 10C14.1268 10 13.5 9.37322 13.5 8.60002C13.5 7.82683 14.1268 7.20002 14.9 7.20002C15.6732 7.20002 16.3 7.82683 16.3 8.60002ZM6.5 8.60002C6.5 9.37322 5.8732 10 5.1 10C4.3268 10 3.7 9.37322 3.7 8.60002C3.7 7.82683 4.3268 7.20002 5.1 7.20002C5.8732 7.20002 6.5 7.82683 6.5 8.60002Z" stroke="#333333" stroke-width="1.67" stroke-linecap="round" stroke-linejoin="round"/>
</svg>
