<svg width="64" height="64" viewBox="0 0 64 64" fill="none" xmlns="http://www.w3.org/2000/svg">
<circle cx="34.5" cy="30.5" r="16.5" fill="#0F172A"/>
<path fill-rule="evenodd" clip-rule="evenodd" d="M32 58C46.3594 58 58 46.3594 58 32C58 17.6406 46.3594 6 32 6C17.6406 6 6 17.6406 6 32C6 46.3594 17.6406 58 32 58ZM30.5528 22.7958C29.5555 22.131 28.2732 22.069 27.2165 22.6346C26.1597 23.2001 25.5 24.3014 25.5 25.5V38.5C25.5 39.6986 26.1597 40.7999 27.2165 41.3654C28.2732 41.931 29.5555 41.869 30.5528 41.2042L40.3028 34.7042C41.2069 34.1014 41.75 33.0867 41.75 32C41.75 30.9134 41.2069 29.8986 40.3028 29.2958L30.5528 22.7958Z" fill="white"/>
</svg>
